<svg xmlns="http://www.w3.org/2000/svg" version="1.1" xmlns:xlink="http://www.w3.org/1999/xlink" width="512" height="512" x="0" y="0" viewBox="0 0 64 64" style="enable-background:new 0 0 512 512" xml:space="preserve" class=""><g><g data-name="Layer 20"><path fill="#ed1c24" d="M61 32c0 13.78-8.86 26.884-22.281 30.823a29.97 29.97 0 0 1-31.753-10.47 33.46 33.46 0 0 1-2.972-36.19 31.33 31.33 0 0 1 13.878-13.3C23.649.1 31.8-1.707 37.506 2.1c2.4 1.6 4.3 3.835 6.329 5.859a12.112 12.112 0 0 0 3.129 2.631 20.457 20.457 0 0 0 3.825 1.141 18.029 18.029 0 0 1 3.865 1.216c1.352.681 1.742 1.783 2.311 3.086.708 1.622 1.542 3.159 2.135 4.835a33.037 33.037 0 0 1 1.411 5.393A33.832 33.832 0 0 1 61 32z" opacity="1" data-original="#ed1c24"></path><path d="M61 32a32.925 32.925 0 0 1-8.323 21.956 30.149 30.149 0 0 1-20.75 10.011c-13.64.674-25.88-8.53-30.186-21.286A33.571 33.571 0 0 1 3.56 16.99a63.09 63.09 0 0 0 2.674 21.72c2.658 8.074 7.989 15.111 16.317 17.809 6.2 2.009 12.953 1.553 19.239.2a65.51 65.51 0 0 1-2.754-18.171 17.919 17.919 0 0 1 1.227-8 31.037 31.037 0 0 1 4.76-7.389 65.678 65.678 0 0 1 7.017-7.129c-1.518-1.528-4.478-1.615-6.461-1.9-2.393-.344-4.814-.885-6.3-2.974-1.563-2.2-.992-5.118-2.56-7.312C35.075 1.541 31.974.661 29.36.02a13.569 13.569 0 0 1 9.284 2.92C41.23 5 43.273 7.642 45.772 9.8c2.179 1.881 5.545 1.829 8.146 2.833a3.889 3.889 0 0 1 2.162 1.937 30.859 30.859 0 0 1 2 3.759A33.235 33.235 0 0 1 61 32z" opacity="1" fill="#00000020" data-original="#00000020"></path><path fill="#349a46" d="M56.4 14.719C50.57 18.9 44.862 24.778 42.293 31.565c-2.775 7.334-.827 16.028 1.171 23.322A50.621 50.621 0 0 0 45.729 62a65.74 65.74 0 0 0 13.514-13.681c2.407-3.347 4.463-7.1 4.723-11.289a29.286 29.286 0 0 0-2.419-12.312 55.813 55.813 0 0 0-5.147-9.999z" opacity="1" data-original="#349a46"></path><path fill="#39b54a" d="M56.613 15.05a75.571 75.571 0 0 1-1.045 20.55 82.237 82.237 0 0 1-5.706 17.466c-1.3 3-2.676 5.957-4.087 8.9a23.738 23.738 0 0 1 1.888-1.544q1.833-1.548 3.578-3.194a63.391 63.391 0 0 0 7.9-8.761c2.377-3.276 4.459-6.968 4.8-11.074a28.256 28.256 0 0 0-2.2-12.19 52.39 52.39 0 0 0-5.128-10.153z" opacity="1" data-original="#39b54a" class=""></path><path fill="#068c38" d="M56.96 20.3a79.875 79.875 0 0 1-3.66 24.174c-.986 3.026-2.3 5.971-3.57 8.889q-1.033 2.385-2.118 4.746A21.939 21.939 0 0 1 45.73 62c-.179-.4.4-1.237.571-1.63q.525-1.181 1.04-2.365 1.075-2.465 2.118-4.944c1.132-2.694 2.307-5.4 3.2-8.191a61.849 61.849 0 0 0 2.488-13.222 75.414 75.414 0 0 0 .134-13.606c-.234-2.5-.569-4.994-.926-7.481-.184-1.282-.366-2.564-.565-3.843a6.285 6.285 0 0 1-.265-1.7c.081-.453-.023-.334.49-.427.438-.078.879-.146 1.32-.207.633 5.26 1.625 10.601 1.625 15.916z" opacity="1" data-original="#068c38"></path><path fill="#534741" d="M61 5.747v1.666a1.693 1.693 0 0 1-1.67 1.717C56.42 9.12 49.88 8.755 46 11c-1.11-.259-1.88-1.71-2-2 2.58-2.721 6.16-4.618 15.26-4.97A1.7 1.7 0 0 1 61 5.747z" opacity="1" data-original="#534741"></path><g fill="#fff"><path d="M52.04 16.03c-.95.84-1.99 1.79-3.04 2.84-5.45-.49-9.45-2.32-12-4.87-3-3-1-5-4-9-2.21-2.95-9.31-3.18-12.89-3.1A29.353 29.353 0 0 1 29.36.02C31.93.65 34.61 1.61 36 3c3 3 1 6 4 9s8.61 1.45 12 4c.01.01.03.02.04.03zM17 19c-4.635 8.613-2.989 16.207-4.133 16.167C11.476 35.118 7.607 24.986 12 17c4.184-7.606 14.374-10.433 15.191-9.325C27.859 8.581 21.365 10.888 17 19z" opacity="1" fill="#ffffff40" data-original="#ffffff40" class=""></path></g></g></g></svg>