<?xml version="1.0" encoding="UTF-8" standalone="no" ?>
<!DOCTYPE svg PUBLIC "-//W3C//DTD SVG 1.1//EN" "http://www.w3.org/Graphics/SVG/1.1/DTD/svg11.dtd">
<svg xmlns="http://www.w3.org/2000/svg" xmlns:xlink="http://www.w3.org/1999/xlink" version="1.1" width="1080" height="1080" viewBox="0 0 1080 1080" xml:space="preserve">
<desc>Created with Fabric.js 5.2.4</desc>
<defs>
</defs>
<g transform="matrix(1 0 0 1 540 540)" id="2d4a8a1d-9ffb-44ab-9079-2fc8203a0607"  >
</g>
<g transform="matrix(1.42 0 0 1.42 540 558.75)"  >
<g style=""   >
		<g transform="matrix(0.7 0 0 0.7 0 -16.06)"  >
<path style="stroke: none; stroke-width: 1; stroke-dasharray: none; stroke-linecap: butt; stroke-dashoffset: 0; stroke-linejoin: miter; stroke-miterlimit: 4; fill: rgb(42,72,111); fill-rule: nonzero; opacity: 1;" vector-effect="non-scaling-stroke"  transform=" translate(-256, -233.06)" d="M 466.237 0 L 466.237 420.231 L 91.643 461.109 L 45.759 466.116 L 45.759 45.884 C 45.759 33.213 50.889 21.737000000000002 59.193 13.433 C 67.49699999999999 5.128999999999998 78.972 0 91.643 0 z" stroke-linecap="round" />
</g>
		<g transform="matrix(0.7 0 0 0.7 -131.11 -16.06)"  >
<path style="stroke: none; stroke-width: 1; stroke-dasharray: none; stroke-linecap: butt; stroke-dashoffset: 0; stroke-linejoin: miter; stroke-miterlimit: 4; fill: rgb(28,48,74); fill-rule: nonzero; opacity: 1;" vector-effect="non-scaling-stroke"  transform=" translate(-68.7, -233.06)" d="M 91.643 0 L 91.643 461.109 L 45.759 466.116 L 45.759 45.884 C 45.759 33.213 50.889 21.737000000000002 59.193 13.433 C 67.49699999999999 5.128999999999998 78.972 0 91.643 0 z" stroke-linecap="round" />
</g>
		<g transform="matrix(0.7 0 0 0.7 0 147.08)"  >
<path style="stroke: none; stroke-width: 1; stroke-dasharray: none; stroke-linecap: butt; stroke-dashoffset: 0; stroke-linejoin: miter; stroke-miterlimit: 4; fill: rgb(28,48,74); fill-rule: nonzero; opacity: 1;" vector-effect="non-scaling-stroke"  transform=" translate(-256, -466.12)" d="M 466.241 420.235 L 91.642 420.235 C 66.30199999999999 420.235 45.76 440.77700000000004 45.76 466.117 C 45.76 491.457 66.30199999999999 511.999 91.642 511.999 L 466.241 511.999 L 466.241 486.244 L 447.573 466.11600000000004 L 466.241 445.98800000000006 z" stroke-linecap="round" />
</g>
		<g transform="matrix(0.7 0 0 0.7 9.01 147.08)"  >
<path style="stroke: none; stroke-width: 1; stroke-dasharray: none; stroke-linecap: butt; stroke-dashoffset: 0; stroke-linejoin: miter; stroke-miterlimit: 4; fill: rgb(245,247,250); fill-rule: nonzero; opacity: 1;" vector-effect="non-scaling-stroke"  transform=" translate(-268.88, -466.12)" d="M 91.642 486.245 C 80.54299999999999 486.245 71.514 477.216 71.514 466.117 C 71.514 455.01800000000003 80.54299999999999 445.98900000000003 91.642 445.98900000000003 L 466.241 445.98900000000003 L 466.241 486.245 z" stroke-linecap="round" />
</g>
		<g transform="matrix(0.7 0 0 0.7 -54.86 -144.38)"  >
<path style="stroke: none; stroke-width: 1; stroke-dasharray: none; stroke-linecap: butt; stroke-dashoffset: 0; stroke-linejoin: miter; stroke-miterlimit: 4; fill: rgb(241,212,66); fill-rule: nonzero; opacity: 1;" vector-effect="non-scaling-stroke"  transform=" translate(-177.62, -49.74)" d="M 210.979 99.481 L 177.62400000000002 65.24699999999999 L 144.26900000000003 99.481 L 144.26900000000003 0 L 210.97900000000004 0 z" stroke-linecap="round" />
</g>
		<g transform="matrix(0.7 0 0 0.7 8.04 -32.34)"  >
<path style="stroke: none; stroke-width: 1; stroke-dasharray: none; stroke-linecap: butt; stroke-dashoffset: 0; stroke-linejoin: miter; stroke-miterlimit: 4; fill: rgb(245,247,250); fill-rule: nonzero; opacity: 1;" vector-effect="non-scaling-stroke"  transform=" translate(-267.48, -209.8)" d="M 356.417 128.242 L 178.543 128.242 C 160.709 128.242 146.252 142.69899999999998 146.252 160.533 L 146.252 259.06399999999996 C 146.252 276.89799999999997 160.709 291.35499999999996 178.543 291.35499999999996 L 356.41700000000003 291.35499999999996 C 374.25100000000003 291.35499999999996 388.708 276.89799999999997 388.708 259.06399999999996 L 388.708 160.53299999999996 C 388.708 142.69899999999996 374.25100000000003 128.24199999999996 356.41700000000003 128.24199999999996 z" stroke-linecap="round" />
</g>
		<g transform="matrix(0.7 0 0 0.7 8.04 -32.34)"  >
<path style="stroke: none; stroke-width: 1; stroke-dasharray: none; stroke-linecap: butt; stroke-dashoffset: 0; stroke-linejoin: miter; stroke-miterlimit: 4; fill: rgb(28,48,74); fill-rule: nonzero; opacity: 1;" vector-effect="non-scaling-stroke"  transform=" translate(-267.48, -209.8)" d="M 356.417 299.082 L 178.543 299.082 C 156.477 299.082 138.525 281.13 138.525 259.06399999999996 L 138.525 160.53299999999996 C 138.525 138.46799999999996 156.477 120.51599999999996 178.543 120.51599999999996 L 356.41700000000003 120.51599999999996 C 378.483 120.51599999999996 396.43500000000006 138.46799999999996 396.43500000000006 160.53299999999996 L 396.43500000000006 259.06399999999996 C 396.43500000000006 281.12999999999994 378.48300000000006 299.082 356.41700000000003 299.082 z M 178.543 135.969 C 164.99800000000002 135.969 153.978 146.989 153.978 160.533 L 153.978 259.06399999999996 C 153.978 272.609 164.99800000000002 283.62899999999996 178.543 283.62899999999996 L 356.41700000000003 283.62899999999996 C 369.96200000000005 283.62899999999996 380.982 272.609 380.982 259.06399999999996 L 380.982 160.53299999999996 C 380.982 146.98799999999997 369.96200000000005 135.96899999999997 356.41700000000003 135.96899999999997 z" stroke-linecap="round" />
</g>
		<g transform="matrix(0.7 0 0 0.7 8.04 -32.34)"  >
<path style="stroke: none; stroke-width: 1; stroke-dasharray: none; stroke-linecap: butt; stroke-dashoffset: 0; stroke-linejoin: miter; stroke-miterlimit: 4; fill: rgb(178,178,179); fill-rule: nonzero; opacity: 1;" vector-effect="non-scaling-stroke"  transform=" translate(-267.48, -209.8)" d="M 340.051 197.057 L 194.909 197.057 C 192.14876602296965 197.0570000440998 189.59820462874293 195.58443277278045 188.21808762749725 193.1940000356332 C 186.83797062625158 190.80356729848592 186.83797062625158 187.85843270151406 188.21808762749725 185.46799996436678 C 189.59820462874293 183.07756722721953 192.14876602296965 181.60499995590018 194.909 181.605 L 340.05 181.605 C 344.31695197719273 181.605 347.776 185.06404802280727 347.776 189.331 C 347.7765305847662 191.3800519430034 346.9628513058074 193.345347003255 345.5140465101391 194.79433934646966 C 344.0652417144708 196.24333168968434 342.10005199451706 197.05726535248752 340.051 197.057 z M 340.051 237.993 L 194.909 237.993 C 192.14876602296965 237.9930000440998 189.59820462874293 236.52043277278045 188.21808762749725 234.1300000356332 C 186.83797062625158 231.73956729848592 186.83797062625158 228.79443270151404 188.21808762749725 226.4039999643668 C 189.59820462874293 224.01356722721954 192.14876602296965 222.5409999559002 194.909 222.541 L 340.05 222.541 C 344.31695197719273 222.5407238576251 347.7762238576251 225.9995480228073 347.7765 230.2665 C 347.7767761423749 234.53345197719273 344.3179519771927 237.9927238576251 340.051 237.993 z" stroke-linecap="round" />
</g>
</g>
</g>
<g transform="matrix(1 0 0 1 540 167.31)" style="" id="519b7884-b27d-4499-b18d-680e30c5cfed"  >
		<text xml:space="preserve" font-family="-apple-system, BlinkMacSystemFont, 'Segoe UI', 'Roboto', 'Oxygen',
    'Ubuntu', 'Cantarell', 'Fira Sans', 'Droid Sans', 'Helvetica Neue',
    sans-serif" font-size="141" font-style="normal" font-weight="700" style="stroke: none; stroke-width: 1; stroke-dasharray: none; stroke-linecap: butt; stroke-dashoffset: 0; stroke-linejoin: miter; stroke-miterlimit: 4; fill: rgb(245,247,250); fill-rule: nonzero; opacity: 1; white-space: pre;" ><tspan x="-438.3" y="44.29" >S</tspan><tspan x="-338.47" y="44.29" >L</tspan><tspan x="-242.73" y="44.29" >A</tspan><tspan x="-138.39" y="44.29" >G</tspan><tspan x="-22.77" y="44.29" >A</tspan><tspan x="85.38" y="44.29" >L</tspan><tspan x="181.11" y="44.29" >I</tspan><tspan x="234.84" y="44.29" >C</tspan><tspan x="343.55" y="44.29" >A</tspan></text>
</g>
<g transform="matrix(0 0 0 0 0 0)"  >
<g style=""   >
</g>
</g>
<g transform="matrix(0 0 0 0 0 0)"  >
<g style=""   >
</g>
</g>
<g transform="matrix(1 0 0 1 540 940.7)" style=""  >
		<text xml:space="preserve" font-family="-apple-system, BlinkMacSystemFont, 'Segoe UI', 'Roboto', 'Oxygen',
    'Ubuntu', 'Cantarell', 'Fira Sans', 'Droid Sans', 'Helvetica Neue',
    sans-serif" font-size="141" font-style="normal" font-weight="700" style="stroke: none; stroke-width: 1; stroke-dasharray: none; stroke-linecap: butt; stroke-dashoffset: 0; stroke-linejoin: miter; stroke-miterlimit: 4; fill: rgb(245,247,250); fill-rule: nonzero; opacity: 1; white-space: pre;" ><tspan x="-300.89" y="44.29" >K</tspan><tspan x="-112.09" y="44.29" >V</tspan><tspan x="77.69" y="44.29" >I</tspan><tspan x="212.49" y="44.29" >Z</tspan></text>
</g>
</svg>