<svg xmlns="http://www.w3.org/2000/svg" version="1.1" xmlns:xlink="http://www.w3.org/1999/xlink" width="512" height="512" x="0" y="0" viewBox="0 0 64 64" style="enable-background:new 0 0 512 512" xml:space="preserve" class=""><g><g data-name="Layer 4"><path fill="#242324" d="M31 47h2l6 17H25z" opacity="1" data-original="#171717"></path><path fill="#242324" d="M47 24c-.403 0-.797.03-1.192.057a16 16 0 1 0-27.616 0C17.797 24.03 17.402 24 17 24 7.611 24 0 31.163 0 40s7.611 16 17 16a17.161 17.161 0 0 0 15-8.475A17.161 17.161 0 0 0 47 56c9.389 0 17-7.163 17-16s-7.611-16-17-16z" opacity="1" data-original="#171717"></path><path d="M64 40c0 8.84-7.61 16-17 16a17.388 17.388 0 0 1-12.74-5.42L39 64H25l4.74-13.42A17.388 17.388 0 0 1 17 56C7.65 56 .07 48.91 0 40.12c16.3 2.05 35.4-2.61 55.46-14A15.857 15.857 0 0 1 64 40z" fill="#000000" opacity="0" data-original="#000000" class=""></path></g></g></svg>