<svg xmlns="http://www.w3.org/2000/svg" version="1.1" xmlns:xlink="http://www.w3.org/1999/xlink" width="512" height="512" x="0" y="0" viewBox="0 0 64 64" style="enable-background:new 0 0 512 512" xml:space="preserve" class=""><g><g data-name="Layer 2"><path fill="#a42b25" d="M32 64a131.095 131.095 0 0 0-14.609-17.391A131.095 131.095 0 0 0 0 32a131.095 131.095 0 0 0 17.391-14.609A131.095 131.095 0 0 0 32 0a131.095 131.095 0 0 0 14.609 17.391A131.095 131.095 0 0 0 64 32a131.092 131.092 0 0 0-32 32z" opacity="1" data-original="#da0037" class=""></path><path d="M64 32a131.213 131.213 0 0 0-32 32 131.315 131.315 0 0 0-14.61-17.39 133.03 133.03 0 0 0-8.7-7.95c12.3 6.19 30.81 2.58 49.6-10.9 1.98 1.55 3.89 2.96 5.71 4.24z" opacity="0" fill="#ffffff" data-original="#00000020" class=""></path></g></g></svg>