<svg xmlns="http://www.w3.org/2000/svg" version="1.1" xmlns:xlink="http://www.w3.org/1999/xlink" width="512" height="512" x="0" y="0" viewBox="0 0 64 64" style="enable-background:new 0 0 512 512" xml:space="preserve" class=""><g><g data-name="Layer 24"><path fill="#0ccbfd" d="M53 0H11L0 25l32 39 32-39z" opacity="1" data-original="#0ccbfd" class=""></path><path fill="#0ccbfd" d="M17 25H0L11 0zM64 25H47l6-25z" opacity="1" data-original="#0ccbfd" class=""></path><path fill="#b7fdfe" d="M32 64 0 25h17z" opacity="1" data-original="#b7fdfe" class=""></path><path fill="#0086e9" d="M64 25 32 64l15-39z" opacity="1" data-original="#0086e9" class=""></path><path d="M64 25 32 64l15-39z" opacity="0" fill="#000000" data-original="#00000020" class=""></path><path fill="#0086e9" d="M32.15 0 17 25 11 0zM53 0l-6 25L32.15 0z" opacity="1" data-original="#0086e9" class=""></path><path fill="#0ccbfd" d="M47 25 32 64 17 25z" opacity="1" data-original="#0ccbfd" class=""></path><path fill="#b7fdfe" d="M47 25H17L32.15 0z" opacity="1" data-original="#b7fdfe" class=""></path><g fill="#fff"><circle cx="17" cy="25" r="2" fill="#ffffff" opacity="1" data-original="#ffffff" class=""></circle><path d="m17 23 23 2-23 2z" fill="#ffffff" opacity="1" data-original="#ffffff" class=""></path><path d="M15.285 23.971 23 15l-4.285 11.029z" fill="#ffffff" opacity="1" data-original="#ffffff" class=""></path><path d="M15.054 25.463 12 4l6.946 20.537z" fill="#ffffff" opacity="1" data-original="#ffffff" class=""></path><path d="M17 27 5 25l12-2zM17 25l7 18" fill="#ffffff" opacity="1" data-original="#ffffff" class=""></path><path d="M18.864 24.275 24 43l-8.864-17.275z" fill="#ffffff" opacity="1" data-original="#ffffff" class=""></path></g></g></g></svg>