<svg xmlns="http://www.w3.org/2000/svg" version="1.1" xmlns:xlink="http://www.w3.org/1999/xlink" width="512" height="512" x="0" y="0" viewBox="0 0 64 64" style="enable-background:new 0 0 512 512" xml:space="preserve" class=""><g><path fill="#a42b25" d="M64 18.43a20.225 20.225 0 0 1-4.56 13.04l-5.46 6.47L32 64 10.01 37.94l-2.76-3.27-2.7-3.2c-6.07-7.2-6.07-18.87 0-26.07A14.383 14.383 0 0 1 15.54 0a14.372 14.372 0 0 1 11 5.4L32 11.88l5.46-6.48c6.07-7.2 15.91-7.2 21.98 0a20.157 20.157 0 0 1 4.55 12.64c.01.13.01.26.01.39z" opacity="1" data-original="#da0037" class=""></path><path d="M64 18.43a20.225 20.225 0 0 1-4.56 13.04l-5.46 6.47L32 64 10.01 37.94l-2.76-3.27c12.55 10.26 35.28 4.76 56.74-16.63.01.13.01.26.01.39z" opacity="0" fill="#ffffff" data-original="#00000020" class=""></path></g></svg>