<svg xmlns="http://www.w3.org/2000/svg" version="1.1" xmlns:xlink="http://www.w3.org/1999/xlink" width="512" height="512" x="0" y="0" viewBox="0 0 64 64" style="enable-background:new 0 0 512 512" xml:space="preserve"><g><g data-name="Layer 17"><path fill="#349a46" d="M40.292.28c8.6 1.778 14.582 12.311 14.582 12.311s-9.694 7.294-18.3 5.515S21.939 5.783 21.939 5.783 31.689-1.5 40.292.28z" opacity="1" data-original="#349a46"></path><ellipse cx="5.675" cy="58.348" fill="#ffcc00" rx="6.513" ry="4.661" transform="rotate(-44.64 5.673 58.316)" opacity="1" data-original="#ffcc00"></ellipse><ellipse cx="51.87" cy="12.341" fill="#349a46" rx="4.739" ry="2.831" transform="rotate(-29.77 51.855 12.32)" opacity="1" data-original="#349a46"></ellipse><path fill="#ffcc00" d="M44.381 52.8c-7.969 7.936-20.618 13.916-31.935 10.045A18.042 18.042 0 0 1 1.834 53.3a23.793 23.793 0 0 1-1.2-14.779c2.54-11.876 11.74-22.264 22.787-27.129 10.135-4.463 23.861-4.085 29.77 6.743 5.477 10.034 1.1 22.654-5.524 30.991a42.441 42.441 0 0 1-3.286 3.674z" opacity="1" data-original="#ffcc00"></path><path fill="#ffcc00" d="M52.956 17.71c-1.557 2.157-4.761 4.041-7.474 3.021-3.133-1.178-2.55-5.06-1.073-7.287 1.56-2.351 4.92-4.614 7.85-3.475 3.341 1.299 2.393 5.531.697 7.741z" opacity="1" data-original="#ffcc00"></path><path d="M53.468 10.75a3.4 3.4 0 0 0-.633-.5 50.49 50.49 0 0 0-3.614 2.94 41.117 41.117 0 0 0-5.543 6A27.582 27.582 0 0 0 38.156 32a39.1 39.1 0 0 0 1.133 14.983 2.2 2.2 0 0 1-.488 2.059 29.379 29.379 0 0 1-27.676 9.048c-.492-.09-.954-.19-1.365-.29a4.926 4.926 0 0 0-4.137.89 4.549 4.549 0 0 0-.613.55 70.995 70.995 0 0 1-3.845 3.79c1.837 1.71 5.3 1.11 7.812-1.39a3.129 3.129 0 0 0 .241-.26c8.955 5.113 22.317 2.595 32.841-6.446v.006c.593-.5 1.175-1.03 1.748-1.58-.107-.324-1.787-6.1-2.169-7.78l-.005.006c-1.2-5.263 1.6-22.3 3.629-24.946a45.286 45.286 0 0 1 5.5-5.95 51.945 51.945 0 0 1 3.424-2.88 3.33 3.33 0 0 0-.718-1.06z" opacity="1" fill="#00000020" data-original="#00000020"></path><path fill="#fff" d="M32.713 17.651a1 1 0 0 0-.386-1.934 25.091 25.091 0 0 0-18.944 8.864 33.739 33.739 0 0 0-7.568 18.108 1 1 0 0 0 1.888.554c2.2-4.328 5.021-10.159 9.488-15.4C22.1 22.071 28.6 19.271 32.713 17.651z" opacity=".4"></path><path fill="#349a46" d="M63.579 34.85c-1.433 5.531-5.411 10.193-9.355 14.184A67.647 67.647 0 0 1 45.1 57a41.926 41.926 0 0 1-2.041-6.006A71.419 71.419 0 0 1 40.6 39.9c-.508-3.852-.675-7.922.516-11.67a29.177 29.177 0 0 1 6.853-10.777 50.62 50.62 0 0 1 8.165-7.084 54.452 54.452 0 0 1 5.446 10.183c1.777 4.427 3.145 9.539 1.999 14.298z"></path><path fill="#39b54a" d="M56.35 10.7a71.151 71.151 0 0 1-1.079 20.264 79.118 79.118 0 0 1-5.956 17.36c-1.322 2.914-2.727 5.784-4.162 8.645a22.792 22.792 0 0 1 1.866-1.455q1.935-1.556 3.781-3.214a64.4 64.4 0 0 0 8.157-8.64c2.518-3.3 4.714-7.062 4.988-11.28a27.43 27.43 0 0 0-2.368-11.822A50.852 50.852 0 0 0 56.35 10.7z"></path><path fill="#068c38" d="M56.711 15.88a75.133 75.133 0 0 1-3.834 23.982c-1.031 2.985-2.391 5.892-3.7 8.765q-1.089 2.394-2.236 4.761c-.35.723-.711 1.441-1.068 2.16A6.254 6.254 0 0 1 45.1 57c-.19-.308.355-1.1.5-1.41q.429-.924.855-1.849.939-2.044 1.855-4.1c1.146-2.573 2.283-5.155 3.3-7.781 2.608-6.714 3.453-14.181 3.572-21.334a59.228 59.228 0 0 0-.134-5.974 71.17 71.17 0 0 0-.133-1.384 6.393 6.393 0 0 1-.177-1.584c.1-.476.93-.9 1.384-1.215.525.564.4 2.124.457 2.878.075.876.132 1.753.132 2.633z"></path></g></g></svg>