<svg xmlns="http://www.w3.org/2000/svg" version="1.1" xmlns:xlink="http://www.w3.org/1999/xlink" width="512" height="512" x="0" y="0" viewBox="0 0 64 64" style="enable-background:new 0 0 512 512" xml:space="preserve" class="hovered-paths"><g><g data-name="Layer 18"><path fill="#534741" d="M40 14s2.805-9.35 19.263-9.968A1.672 1.672 0 0 1 61 5.694V7.3a1.662 1.662 0 0 1-1.67 1.66C55.02 8.95 43.806 9.548 43 16z" opacity="1" data-original="#534741"></path><path fill="#854883" d="M63 33c0 14.272-11.08 26.5-24.568 29.983A30.711 30.711 0 0 1 6.611 52.271C-1.65 41.71-1.812 26.775 4.253 15.1A28.151 28.151 0 0 1 17.636 2.046C23.748-.622 31.2-.98 36.862 2.934a16.568 16.568 0 0 1 5.708 6.9c.318.721.2 1.152 1.014 1.182a16.058 16.058 0 0 1 2.985.39 15.469 15.469 0 0 1 4.822 2 14.239 14.239 0 0 1 5.83 7.175 11.222 11.222 0 0 0 .671 2.2 19.064 19.064 0 0 0 1.772 1.739 13.538 13.538 0 0 1 2.432 3.8A12.256 12.256 0 0 1 63 33z" opacity="1" data-original="#854883" class="hovered-path"></path><path fill="#fff" d="M50.1 12.671a31.925 31.925 0 0 0-1.413-.612c-.123-.048-1.293-.443-1.77-.563-.159-.04-.321-.073-.483-.108a26.682 26.682 0 0 0-3.087-.382 2.8 2.8 0 0 0-.647.055 30.869 30.869 0 0 0-14.51 8.01 31.893 31.893 0 0 0-9.11 18.92c-.14 1.15 1.73 1.63 2.33.61 2.67-4.52 6.08-10.61 11.53-16.06a32.528 32.528 0 0 1 4.307-3.595 5.766 5.766 0 0 1 1.093-.6C41.017 17.216 47.434 16.46 55 21c.86.52 1.66-.1 2.41.18a14.229 14.229 0 0 0-7.31-8.509z" opacity=".4"></path><path d="M55.41 52.52A33.613 33.613 0 0 1 30.52 64 30.761 30.761 0 0 1 0 33a39.344 39.344 0 0 1 3.32-15.96C4.74 32.35 11.44 59.43 41.14 56c-3.49-13.77-2.4-18.64-2.14-21 .67-5.96 6.14-12.79 9.76-16.73a21.85 21.85 0 0 1 2.43.83c-3.72 3.58-8.3 8.99-9.66 14.98-1.48 6.5.45 15.56 2.14 21.57a69.312 69.312 0 0 0 11.74-3.13z" opacity=".2"></path><path fill="#349a46" d="M56.4 14.709c-5.832 4.181-11.539 10.062-14.108 16.85-2.776 7.336-.827 16.031 1.171 23.327A50.634 50.634 0 0 0 45.729 62a65.755 65.755 0 0 0 13.514-13.684c2.407-3.348 4.463-7.1 4.723-11.291a29.3 29.3 0 0 0-2.419-12.314A55.84 55.84 0 0 0 56.4 14.709z"></path><path fill="#39b54a" d="M56.613 15.04a75.608 75.608 0 0 1-1.045 20.553 82.29 82.29 0 0 1-5.706 17.47c-1.3 3-2.676 5.958-4.087 8.905a23.749 23.749 0 0 1 1.888-1.545q1.833-1.546 3.578-3.194a63.35 63.35 0 0 0 7.9-8.763c2.377-3.277 4.459-6.969 4.8-11.076a28.269 28.269 0 0 0-2.2-12.193 52.35 52.35 0 0 0-5.128-10.157z"></path><path fill="#068c38" d="M56.96 20.29a79.9 79.9 0 0 1-3.66 24.18c-.986 3.027-2.3 5.973-3.57 8.892q-1.033 2.383-2.118 4.746A21.982 21.982 0 0 1 45.73 62c-.179-.4.4-1.238.571-1.63q.525-1.182 1.04-2.366 1.075-2.465 2.118-4.944c1.132-2.7 2.307-5.405 3.2-8.193a61.888 61.888 0 0 0 2.488-13.225 75.449 75.449 0 0 0 .134-13.609c-.234-2.5-.569-5-.926-7.483-.184-1.282-.366-2.564-.565-3.843a6.291 6.291 0 0 1-.265-1.7c.081-.454-.023-.335.49-.427.438-.079.879-.147 1.32-.208.633 5.261 1.625 10.603 1.625 15.918z"></path><path d="M43 11a29.557 29.557 0 0 0-13.2 6.569 31.205 31.205 0 0 0-5.554 6.331 6.453 6.453 0 0 1-.906 1.434 2.268 2.268 0 0 1-1.373.127c-.913-.214-1-1.084-.953-1.883.207-3.525 3-6.36 5.236-8.824 1.692-1.864 4.687-4.6 3.856-7.444-.576-1.975-2.553-3.238-4.306-4.056a26.138 26.138 0 0 0-6.381-1.9c4.807-1.662 10.32-1.989 15.015.193a16.545 16.545 0 0 1 7.306 6.662A8.3 8.3 0 0 1 43 11z" opacity=".2"></path><path fill="#534741" d="M61 5.69V7.3a1.664 1.664 0 0 1-1.67 1.66c-2.91-.01-8.96.26-12.84 2.43A16.02 16.02 0 0 0 43 11c0-.01.01.01 0 0-.01-.03-.23-.7-.35-.98 2.58-2.63 7.51-5.65 16.61-5.99A1.674 1.674 0 0 1 61 5.69z"></path></g></g></svg>