<svg xmlns="http://www.w3.org/2000/svg" version="1.1" xmlns:xlink="http://www.w3.org/1999/xlink" width="512" height="512" x="0" y="0" viewBox="0 0 64 64" style="enable-background:new 0 0 512 512" xml:space="preserve" class=""><g><g data-name="Layer 3"><path fill="#242324" d="M59.45 54.94a14.476 14.476 0 0 1-21.99 0l-2.73-3.03L32 48.87l-2.73 3.04-2.73 3.03a14.454 14.454 0 0 1-15.71 4.24 15.314 15.314 0 0 1-6.27-4.24 18.654 18.654 0 0 1 0-24.44l5.46-6.07L32 0l7.54 8.38 14.45 16.05 5.46 6.07a18.677 18.677 0 0 1 0 24.44z" opacity="1" data-original="#171717" class=""></path><path fill="#242324" d="M31 47h2l6 17H25z" opacity="1" data-original="#171717" class=""></path><path d="M59.45 54.94a14.476 14.476 0 0 1-21.99 0l-2.73-3.02L39 64H25l4.27-12.08-2.73 3.02a14.454 14.454 0 0 1-15.71 4.24 15.314 15.314 0 0 1-6.27-4.24A18.75 18.75 0 0 1 .1 40.75c15.88 3.86 35.49-.75 56.1-13.86l3.25 3.61a18.677 18.677 0 0 1 0 24.44z" fill="#000000" opacity="0" data-original="#000000" class=""></path></g></g></svg>
